<svg width="997" height="149" viewBox="0 0 997 149" fill="none" xmlns="http://www.w3.org/2000/svg">
<path d="M971.944 95.5335V112.084H969.79V95.5335H971.944ZM977.246 95.5335V97.3295H964.498V95.5335H977.246ZM980.386 95.5335H982.505L987.911 109.026L993.304 95.5335H995.435L988.726 112.084H987.073L980.386 95.5335ZM979.694 95.5335H981.565L981.87 105.627V112.084H979.694V95.5335ZM994.246 95.5335H996.116V112.084H993.94V105.627L994.246 95.5335Z" fill="white"/>
<path d="M61.8302 116.931L41.0946 52.5338L27.8621 115.967C27.5665 117.413 26.1987 118.525 24.7572 118.525H1.91467C0.473159 118.525 -0.22912 117.413 0.0665769 115.967L22.4286 8.97198C22.7243 7.5261 23.9071 6.41389 25.3487 6.41389H51.7027C52.9964 6.41389 53.8464 6.89585 54.2531 8.00806L75.0627 72.7391L88.369 8.97198C88.6647 7.5261 89.8475 6.41389 91.2891 6.41389H114.132C115.573 6.41389 116.46 7.5261 116.164 8.97198L93.8395 116.004C93.5438 117.45 92.1761 118.562 90.7346 118.562H64.3806C63.1239 118.562 62.2368 118.081 61.8302 116.931Z" fill="white"/>
<path d="M122.707 42.6349C123.003 41.189 124.371 40.0768 125.812 40.0768H147.841C149.283 40.0768 150.17 41.189 149.874 42.6349L134.535 116.004C134.239 117.45 132.872 118.562 131.43 118.562H109.401C107.959 118.562 107.072 117.45 107.368 116.004L122.707 42.6349ZM127.66 14.4217C129.324 6.41378 136.753 0 145.217 0C153.534 0 158.413 6.41378 156.749 14.4217C155.049 22.578 147.472 28.9918 139.192 28.9918C130.691 28.9918 125.96 22.6151 127.66 14.4217Z" fill="white"/>
<path d="M151.981 116.004L163.513 60.7269H154.236C152.794 60.7269 152.092 59.6147 152.387 58.1689L155.64 42.6349C155.936 41.189 157.119 40.0768 158.56 40.0768H167.838L169.871 30.2893C174.084 10.1211 187.391 1.44576 205.612 1.44576C210.714 1.44576 214.335 1.77943 218.882 4.48583C219.732 4.96779 219.991 6.08 219.77 7.04392L216.036 24.9877C215.815 26.0999 214.817 26.2852 213.745 26.0999C210.973 25.618 208.828 25.1359 206.906 25.1359C199.736 25.1359 197.223 28.658 196.188 33.6258L194.857 40.0397H210.493C211.933 40.0397 212.636 41.152 212.341 42.5978L209.087 58.1318C208.792 59.5776 207.609 60.6899 206.167 60.6899H190.533L179 115.967C178.705 117.413 177.337 118.525 175.895 118.525H154.014C152.535 118.562 151.648 117.413 151.981 116.004Z" fill="white"/>
<path d="M219.659 42.6349C219.955 41.189 221.322 40.0768 222.763 40.0768H244.793C246.234 40.0768 247.121 41.189 246.826 42.6349L231.487 116.004C231.19 117.45 229.822 118.562 228.382 118.562H206.351C204.911 118.562 204.024 117.45 204.319 116.004L219.659 42.6349ZM224.612 14.4217C226.275 6.41378 233.705 0 242.168 0C250.486 0 255.364 6.41378 253.701 14.4217C252 22.578 244.424 28.9918 236.107 28.9918C227.643 28.9918 222.911 22.6151 224.612 14.4217Z" fill="white"/>
<path d="M271.257 116.004L293.62 9.00879C293.915 7.56291 295.098 6.4507 296.54 6.4507H331.69C359.154 6.4507 368.949 21.5027 364.328 43.5987C359.708 65.6948 343.63 80.7467 316.167 80.7467H306.409L299.053 116.004C298.757 117.45 297.389 118.562 295.949 118.562H273.105C271.701 118.562 270.962 117.413 271.257 116.004ZM320.676 56.0927C328.031 56.0927 335.609 54.1648 337.826 43.5987C340.043 33.0328 333.243 31.1048 325.888 31.1048H316.795L311.583 56.0927H320.676Z" fill="white"/>
<path d="M356.862 79.3012C361.668 56.2413 380.297 38.1493 401.882 38.1493C412.897 38.1493 419.587 42.1532 423.1 49.049L424.763 42.6351C425.058 41.1892 426.426 40.077 427.868 40.077H447.679C449.12 40.077 450.007 41.1892 449.712 42.6351L434.371 116.004C434.076 117.45 432.562 118.563 431.12 118.563H411.457C410.014 118.563 409.127 117.45 409.422 116.004L410.458 109.442C403.768 116.338 395.377 120.49 384.658 120.49C363.147 120.453 352.02 102.547 356.862 79.3012ZM395.857 96.1328C405.283 96.1328 413.23 89.4223 415.373 79.153C417.48 69.0688 412.306 62.5068 402.88 62.5068C393.603 62.5068 385.176 69.2172 383.069 79.3383C380.926 89.5706 386.58 96.1328 395.857 96.1328Z" fill="white"/>
<path d="M454.072 146.108L471.335 118.562L456.808 42.7833C456.549 41.0039 457.696 40.0399 459.469 40.0399H481.683C482.976 40.0399 484.087 40.6701 484.308 41.9678L490.85 87.1237L516.427 41.9678C517.167 40.6701 518.572 40.0399 519.866 40.0399H542.08C543.853 40.0399 544.446 41.0039 543.411 42.7833L480.279 147.072C479.54 148.37 478.136 149 476.842 149H455.589C453.629 149 452.743 148.036 454.072 146.108Z" fill="white"/>
<path d="M535.279 116.004L550.618 42.6351C550.913 41.1892 552.281 40.077 553.723 40.077H574.792C576.085 40.077 577.045 40.7073 576.601 42.8204L575.605 50.6802C581.629 43.3025 589.871 38.1863 600.11 38.1863C609.683 38.1863 616.373 42.8204 619.072 51.3103C625.319 43.6361 634.263 38.1863 645.759 38.1863C662.835 38.1863 670.893 50.1983 666.605 70.7001L657.143 116.041C656.846 117.487 655.48 118.599 654.038 118.599H632.304C630.862 118.599 629.975 117.487 630.272 116.041L638.402 77.1139C640.362 67.66 638.181 62.8404 631.011 62.8404C624.136 62.8404 619.627 67.66 617.667 77.1139L609.536 116.041C609.239 117.487 607.871 118.599 606.431 118.599H585.029C583.255 118.599 582.368 117.487 582.701 116.041L590.833 77.1139C592.792 67.66 590.759 62.8404 583.589 62.8404C576.898 62.8404 572.203 67.66 570.245 77.1139L562.112 116.041C561.817 117.487 560.449 118.599 559.009 118.599H537.275C535.87 118.562 534.984 117.413 535.279 116.004Z" fill="white"/>
<path d="M672.703 79.0047C677.509 55.9448 697.357 38.1493 721.79 38.1493C745.741 38.1493 755.98 55.611 751.766 75.7792C749.991 84.2691 746.813 89.5708 738.976 89.5708H696.692C698.06 96.7631 704.344 99.5066 714.101 99.5066C718.574 99.5066 723.712 99.3583 730.993 95.8363C732.397 95.2059 733.138 95.5025 733.654 96.8L738.866 107.07C739.31 108.034 739.199 109.294 737.313 110.74C729.366 117.45 718.647 120.527 707.486 120.527C681.759 120.453 667.639 103.177 672.703 79.0047ZM728.96 71.145C729.109 62.8033 723.933 60.097 717.391 60.097C710.516 60.097 703.826 63.1371 700.056 71.145H728.96Z" fill="white"/>
<path d="M751.395 116.004L766.734 42.6351C767.031 41.1892 768.399 40.077 769.839 40.077H790.908C792.201 40.077 793.163 40.7073 792.755 42.8204L791.721 51.6441C797.857 43.6361 805.877 38.1863 816.891 38.1863C833.007 38.1863 842.618 50.3466 838.366 70.7001L828.904 116.041C828.609 117.487 827.094 118.599 825.652 118.599H804.103C802.661 118.599 801.774 117.487 802.071 116.041L810.129 77.4475C812.161 67.66 809.167 62.8775 801.368 62.8775C793.717 62.8775 788.395 67.6971 786.361 77.4475L778.303 116.041C778.007 117.487 776.64 118.599 775.199 118.599H753.466C751.986 118.562 751.1 117.413 751.395 116.004Z" fill="white"/>
<path d="M849.42 94.0561L856.368 60.7266H846.611C845.169 60.7266 844.466 59.6144 844.763 58.1685L848.015 42.6345C848.31 41.1887 849.493 40.0765 850.935 40.0765H860.692L864.5 21.7991C864.795 20.3532 866.163 19.241 867.605 19.241H889.634C891.076 19.241 891.962 20.3532 891.667 21.7991L887.861 40.0765H899.504C900.944 40.0765 901.832 41.1887 901.536 42.6345L898.283 58.1685C897.987 59.6144 896.62 60.7266 895.178 60.7266H883.536L877.178 91.1644C876.364 95.02 878.768 97.2445 882.611 97.2445C884.053 97.2445 885.272 97.3928 887.563 97.2445C888.895 97.0962 890.152 97.8746 889.819 99.4689L886.752 114.224C885.864 118.377 876.698 119.526 870.931 119.526C857.661 119.526 845.317 113.594 849.42 94.0561Z" fill="white"/>
<path d="M893.551 106.847C892.96 105.883 893.551 103.807 895.177 102.027L904.27 92.0916C906.192 89.8672 907.523 90.312 908.632 91.1277C914.804 95.9473 919.611 98.1717 924.563 98.1717C928.074 98.1717 930.514 97.2078 931.105 94.3161C931.585 92.0916 930.366 90.9423 926.004 88.8661L916.616 84.8622C907.08 80.8581 902.016 73.6658 904.27 62.9143C907.598 47.0468 923.047 38.075 938.386 38.075C949.069 38.075 958.087 42.4125 963.373 50.7171C964.112 51.8293 963.52 53.1269 962.56 53.9055L951.176 64.8052C949.993 65.9174 948.735 65.7691 947.516 64.8052C943.192 60.9495 939.495 58.8734 935.504 58.8734C931.179 58.8734 930.033 61.2832 929.701 62.8773C929.257 64.9535 931.141 66.7331 933.656 67.6969L945.076 72.6649C954.022 76.5206 960.194 83.7129 957.533 95.5766C953.763 112.074 937.98 120.416 921.679 120.416C908.409 120.453 898.837 115.189 893.551 106.847Z" fill="white"/>
</svg>
